<svg id="visual" viewBox="0 0 900 150" width="900" height="150" xmlns="http://www.w3.org/2000/svg" xmlns:xlink="http://www.w3.org/1999/xlink" version="1.1"><path d="M0 96L30 96.8C60 97.7 120 99.3 180 91C240 82.7 300 64.3 360 59.5C420 54.7 480 63.3 540 69.2C600 75 660 78 720 75.8C780 73.7 840 66.3 870 62.7L900 59L900 151L870 151C840 151 780 151 720 151C660 151 600 151 540 151C480 151 420 151 360 151C300 151 240 151 180 151C120 151 60 151 30 151L0 151Z" fill="#d7df21" stroke-linecap="round" stroke-linejoin="miter"></path></svg>